<svg xmlns="http://www.w3.org/2000/svg" xmlns:xlink="http://www.w3.org/1999/xlink" width="1379pt" height="1117pt" viewBox="0.00 0.00 1378.56 1117.14">
<g id="graph0" class="graph" transform="scale(1 1) rotate(0) translate(4 1113.14)">
<title>PassportBuddy</title>
<polygon fill="white" stroke="none" points="-4,4 -4,-1113.14 1374.56,-1113.14 1374.56,4 -4,4"/>
<!-- flutter -->
<g id="node1" class="node">
<title>flutter</title>
<path fill="lightblue" stroke="black" d="M1006,-385.24C1006,-385.24 929.2,-385.24 929.2,-385.24 923.2,-385.24 917.2,-379.24 917.2,-373.24 917.2,-373.24 917.2,-355.64 917.2,-355.64 917.2,-349.64 923.2,-343.64 929.2,-343.64 929.2,-343.64 1006,-343.64 1006,-343.64 1012,-343.64 1018,-349.64 1018,-355.64 1018,-355.64 1018,-373.24 1018,-373.24 1018,-379.24 1012,-385.24 1006,-385.24"/>
<text text-anchor="middle" x="967.6" y="-368.64" font-family="Arial" font-size="14.00">Flutter Mobile</text>
<text text-anchor="middle" x="967.6" y="-351.84" font-family="Arial" font-size="14.00">(iOS/Android)</text>
</g>
<!-- graphql -->
<g id="node4" class="node">
<title>graphql</title>
<path fill="lightgreen" stroke="black" d="M418.32,-977.2C418.32,-977.2 332.96,-977.2 332.96,-977.2 326.96,-977.2 320.96,-971.2 320.96,-965.2 320.96,-965.2 320.96,-947.6 320.96,-947.6 320.96,-941.6 326.96,-935.6 332.96,-935.6 332.96,-935.6 418.32,-935.6 418.32,-935.6 424.32,-935.6 430.32,-941.6 430.32,-947.6 430.32,-947.6 430.32,-965.2 430.32,-965.2 430.32,-971.2 424.32,-977.2 418.32,-977.2"/>
<text text-anchor="middle" x="375.64" y="-960.6" font-family="Arial" font-size="14.00">GraphQL API</text>
<text text-anchor="middle" x="375.64" y="-943.8" font-family="Arial" font-size="14.00">(Apollo Server)</text>
</g>
<!-- flutter&#45;&gt;graphql -->
<g id="edge1" class="edge">
<title>flutter-&gt;graphql</title>
<path fill="none" stroke="black" d="M946.53,-385.5C857,-475.04 507.93,-824.1 404.61,-927.43"/>
<polygon fill="black" stroke="black" points="402.43,-924.66 397.83,-934.2 407.38,-929.61 402.43,-924.66"/>
<text text-anchor="middle" x="636.27" y="-660.67" font-family="Arial" font-size="14.00">Apollo Client</text>
</g>
<!-- socketio -->
<g id="node6" class="node">
<title>socketio</title>
<path fill="lightgreen" stroke="black" d="M862.94,-226.62C862.94,-226.62 755.03,-226.62 755.03,-226.62 749.03,-226.62 743.03,-220.62 743.03,-214.62 743.03,-214.62 743.03,-197.02 743.03,-197.02 743.03,-191.02 749.03,-185.02 755.03,-185.02 755.03,-185.02 862.94,-185.02 862.94,-185.02 868.94,-185.02 874.94,-191.02 874.94,-197.02 874.94,-197.02 874.94,-214.62 874.94,-214.62 874.94,-220.62 868.94,-226.62 862.94,-226.62"/>
<text text-anchor="middle" x="808.99" y="-210.02" font-family="Arial" font-size="14.00">Socket.io</text>
<text text-anchor="middle" x="808.99" y="-193.22" font-family="Arial" font-size="14.00">(Real-time Events)</text>
</g>
<!-- flutter&#45;&gt;socketio -->
<g id="edge5" class="edge">
<title>flutter-&gt;socketio</title>
<path fill="none" stroke="black" d="M946.54,-343.37C918.69,-315.52 869.49,-266.32 838.1,-234.93"/>
<polygon fill="black" stroke="black" points="840.75,-232.64 831.21,-228.04 835.8,-237.59 840.75,-232.64"/>
<text text-anchor="middle" x="856.52" y="-293.35" font-family="Arial" font-size="14.00">WebSocket</text>
</g>
<!-- react -->
<g id="node2" class="node">
<title>react</title>
<path fill="lightblue" stroke="black" d="M646.47,-1035.25C646.47,-1035.25 538.16,-1035.25 538.16,-1035.25 532.16,-1035.25 526.16,-1029.25 526.16,-1023.25 526.16,-1023.25 526.16,-1005.65 526.16,-1005.65 526.16,-999.65 532.16,-993.65 538.16,-993.65 538.16,-993.65 646.47,-993.65 646.47,-993.65 652.47,-993.65 658.47,-999.65 658.47,-1005.65 658.47,-1005.65 658.47,-1023.25 658.47,-1023.25 658.47,-1029.25 652.47,-1035.25 646.47,-1035.25"/>
<text text-anchor="middle" x="592.31" y="-1018.65" font-family="Arial" font-size="14.00">React Frontend</text>
<text text-anchor="middle" x="592.31" y="-1001.85" font-family="Arial" font-size="14.00">(TypeScript + Vite)</text>
</g>
<!-- react&#45;&gt;graphql -->
<g id="edge2" class="edge">
<title>react-&gt;graphql</title>
<path fill="none" stroke="black" d="M525.83,-996.64C499.04,-989.46 468.22,-981.2 441.5,-974.04"/>
<polygon fill="black" stroke="black" points="442.73,-970.75 432.17,-971.54 440.92,-977.51 442.73,-970.75"/>
<text text-anchor="middle" x="444.36" y="-989.54" font-family="Arial" font-size="14.00">Apollo Client</text>
</g>
<!-- rest -->
<g id="node5" class="node">
<title>rest</title>
<path fill="lightgreen" stroke="black" d="M191.91,-601.91C191.91,-601.91 126.02,-601.91 126.02,-601.91 120.02,-601.91 114.02,-595.91 114.02,-589.91 114.02,-589.91 114.02,-572.31 114.02,-572.31 114.02,-566.31 120.02,-560.31 126.02,-560.31 126.02,-560.31 191.91,-560.31 191.91,-560.31 197.91,-560.31 203.91,-566.31 203.91,-572.31 203.91,-572.31 203.91,-589.91 203.91,-589.91 203.91,-595.91 197.91,-601.91 191.91,-601.91"/>
<text text-anchor="middle" x="158.97" y="-585.31" font-family="Arial" font-size="14.00">REST API</text>
<text text-anchor="middle" x="158.97" y="-568.51" font-family="Arial" font-size="14.00">(Express.js)</text>
</g>
<!-- react&#45;&gt;rest -->
<g id="edge3" class="edge">
<title>react-&gt;rest</title>
<path fill="none" stroke="black" d="M571.12,-993.26C499.98,-922.12 269.64,-691.79 187.99,-610.14"/>
<polygon fill="black" stroke="black" points="190.74,-607.93 181.19,-603.33 185.79,-612.88 190.74,-607.93"/>
<text text-anchor="middle" x="342.99" y="-805.9" font-family="Arial" font-size="14.00">Axios/Fetch</text>
</g>
<!-- react&#45;&gt;socketio -->
<g id="edge6" class="edge">
<title>react-&gt;socketio</title>
<path fill="none" stroke="black" d="M598,-993.24C627.65,-882.58 764.6,-371.48 800.4,-237.86"/>
<polygon fill="black" stroke="black" points="803.76,-238.84 802.97,-228.27 797,-237.03 803.76,-238.84"/>
<text text-anchor="middle" x="663.41" y="-619.75" font-family="Arial" font-size="14.00">WebSocket</text>
</g>
<!-- pwa -->
<g id="node3" class="node">
<title>pwa</title>
<path fill="lightblue" stroke="black" d="M367.82,-1109.14C367.82,-1109.14 231.1,-1109.14 231.1,-1109.14 225.1,-1109.14 219.1,-1103.14 219.1,-1097.14 219.1,-1097.14 219.1,-1079.54 219.1,-1079.54 219.1,-1073.54 225.1,-1067.54 231.1,-1067.54 231.1,-1067.54 367.82,-1067.54 367.82,-1067.54 373.82,-1067.54 379.82,-1073.54 379.82,-1079.54 379.82,-1079.54 379.82,-1097.14 379.82,-1097.14 379.82,-1103.14 373.82,-1109.14 367.82,-1109.14"/>
<text text-anchor="middle" x="299.46" y="-1092.54" font-family="Arial" font-size="14.00">PWA</text>
<text text-anchor="middle" x="299.46" y="-1075.74" font-family="Arial" font-size="14.00">(Progressive Web App)</text>
</g>
<!-- pwa&#45;&gt;graphql -->
<g id="edge4" class="edge">
<title>pwa-&gt;graphql</title>
<path fill="none" stroke="black" d="M311.7,-1067.14C324.14,-1045.6 343.54,-1011.99 357.71,-987.45"/>
<polygon fill="black" stroke="black" points="360.7,-989.26 362.67,-978.85 354.64,-985.76 360.7,-989.26"/>
</g>
<!-- auth -->
<g id="node7" class="node">
<title>auth</title>
<path fill="lightyellow" stroke="black" d="M264.56,-818.58C264.56,-818.58 169.49,-818.58 169.49,-818.58 163.49,-818.58 157.49,-812.58 157.49,-806.58 157.49,-806.58 157.49,-788.98 157.49,-788.98 157.49,-782.98 163.49,-776.98 169.49,-776.98 169.49,-776.98 264.56,-776.98 264.56,-776.98 270.56,-776.98 276.56,-782.98 276.56,-788.98 276.56,-788.98 276.56,-806.58 276.56,-806.58 276.56,-812.58 270.56,-818.58 264.56,-818.58"/>
<text text-anchor="middle" x="217.02" y="-801.98" font-family="Arial" font-size="14.00">Auth Service</text>
<text text-anchor="middle" x="217.02" y="-785.18" font-family="Arial" font-size="14.00">(JWT + Refresh)</text>
</g>
<!-- graphql&#45;&gt;auth -->
<g id="edge7" class="edge">
<title>graphql-&gt;auth</title>
<path fill="none" stroke="black" d="M354.58,-935.33C326.73,-907.49 277.52,-858.28 246.13,-826.89"/>
<polygon fill="black" stroke="black" points="248.79,-824.6 239.24,-820 243.84,-829.55 248.79,-824.6"/>
</g>
<!-- flight -->
<g id="node8" class="node">
<title>flight</title>
<path fill="lightyellow" stroke="black" d="M426.68,-226.62C426.68,-226.62 324.6,-226.62 324.6,-226.62 318.6,-226.62 312.6,-220.62 312.6,-214.62 312.6,-214.62 312.6,-197.02 312.6,-197.02 312.6,-191.02 318.6,-185.02 324.6,-185.02 324.6,-185.02 426.68,-185.02 426.68,-185.02 432.68,-185.02 438.68,-191.02 438.68,-197.02 438.68,-197.02 438.68,-214.62 438.68,-214.62 438.68,-220.62 432.68,-226.62 426.68,-226.62"/>
<text text-anchor="middle" x="375.64" y="-210.02" font-family="Arial" font-size="14.00">Flight Service</text>
<text text-anchor="middle" x="375.64" y="-193.22" font-family="Arial" font-size="14.00">(OCR + Tracking)</text>
</g>
<!-- graphql&#45;&gt;flight -->
<g id="edge8" class="edge">
<title>graphql-&gt;flight</title>
<path fill="none" stroke="black" d="M375.64,-935.14C375.64,-829.99 375.64,-365.35 375.64,-238.12"/>
<polygon fill="black" stroke="black" points="379.14,-238.4 375.64,-228.4 372.14,-238.4 379.14,-238.4"/>
</g>
<!-- social -->
<g id="node9" class="node">
<title>social</title>
<path fill="lightyellow" stroke="black" d="M1078.26,-601.91C1078.26,-601.91 973.06,-601.91 973.06,-601.91 967.06,-601.91 961.06,-595.91 961.06,-589.91 961.06,-589.91 961.06,-572.31 961.06,-572.31 961.06,-566.31 967.06,-560.31 973.06,-560.31 973.06,-560.31 1078.26,-560.31 1078.26,-560.31 1084.26,-560.31 1090.26,-566.31 1090.26,-572.31 1090.26,-572.31 1090.26,-589.91 1090.26,-589.91 1090.26,-595.91 1084.26,-601.91 1078.26,-601.91"/>
<text text-anchor="middle" x="1025.66" y="-585.31" font-family="Arial" font-size="14.00">Social Service</text>
<text text-anchor="middle" x="1025.66" y="-568.51" font-family="Arial" font-size="14.00">(Posts + Timeline)</text>
</g>
<!-- graphql&#45;&gt;social -->
<g id="edge9" class="edge">
<title>graphql-&gt;social</title>
<path fill="none" stroke="black" d="M412.45,-935.14C523.6,-870.97 855.73,-679.22 978.96,-608.07"/>
<polygon fill="black" stroke="black" points="980.63,-611.15 987.54,-603.12 977.13,-605.09 980.63,-611.15"/>
</g>
<!-- notification -->
<g id="node10" class="node">
<title>notification</title>
<path fill="lightyellow" stroke="black" d="M864.9,-977.2C864.9,-977.2 753.07,-977.2 753.07,-977.2 747.07,-977.2 741.07,-971.2 741.07,-965.2 741.07,-965.2 741.07,-947.6 741.07,-947.6 741.07,-941.6 747.07,-935.6 753.07,-935.6 753.07,-935.6 864.9,-935.6 864.9,-935.6 870.9,-935.6 876.9,-941.6 876.9,-947.6 876.9,-947.6 876.9,-965.2 876.9,-965.2 876.9,-971.2 870.9,-977.2 864.9,-977.2"/>
<text text-anchor="middle" x="808.99" y="-960.6" font-family="Arial" font-size="14.00">Notification Service</text>
<text text-anchor="middle" x="808.99" y="-943.8" font-family="Arial" font-size="14.00">(Push + Email)</text>
</g>
<!-- graphql&#45;&gt;notification -->
<g id="edge10" class="edge">
<title>graphql-&gt;notification</title>
<path fill="none" stroke="black" d="M430.52,-956.4C506.05,-956.4 642.5,-956.4 729.28,-956.4"/>
<polygon fill="black" stroke="black" points="729.14,-959.9 739.14,-956.4 729.14,-952.9 729.14,-959.9"/>
</g>
<!-- media -->
<g id="node11" class="node">
<title>media</title>
<path fill="lightyellow" stroke="black" d="M282.47,-385.24C282.47,-385.24 151.57,-385.24 151.57,-385.24 145.57,-385.24 139.57,-379.24 139.57,-373.24 139.57,-373.24 139.57,-355.64 139.57,-355.64 139.57,-349.64 145.57,-343.64 151.57,-343.64 151.57,-343.64 282.47,-343.64 282.47,-343.64 288.47,-343.64 294.47,-349.64 294.47,-355.64 294.47,-355.64 294.47,-373.24 294.47,-373.24 294.47,-379.24 288.47,-385.24 282.47,-385.24"/>
<text text-anchor="middle" x="217.02" y="-368.64" font-family="Arial" font-size="14.00">Media Service</text>
<text text-anchor="middle" x="217.02" y="-351.84" font-family="Arial" font-size="14.00">(Upload + Processing)</text>
</g>
<!-- graphql&#45;&gt;media -->
<g id="edge11" class="edge">
<title>graphql-&gt;media</title>
<path fill="none" stroke="black" d="M369.99,-935.33C346.24,-846.69 254.34,-503.7 225.64,-396.59"/>
<polygon fill="black" stroke="black" points="229.04,-395.77 223.08,-387.02 222.28,-397.59 229.04,-395.77"/>
</g>
<!-- rest&#45;&gt;auth -->
<g id="edge12" class="edge">
<title>rest-&gt;auth</title>
<path fill="none" stroke="black" d="M164.64,-602.28C174.85,-640.38 196.38,-720.73 208.41,-765.65"/>
<polygon fill="black" stroke="black" points="204.97,-766.31 210.94,-775.06 211.73,-764.5 204.97,-766.31"/>
</g>
<!-- rest&#45;&gt;flight -->
<g id="edge13" class="edge">
<title>rest-&gt;flight</title>
<path fill="none" stroke="black" d="M171.24,-559.86C207.66,-496.77 315.27,-310.38 357.93,-236.49"/>
<polygon fill="black" stroke="black" points="360.78,-238.56 362.75,-228.15 354.72,-235.06 360.78,-238.56"/>
</g>
<!-- rest&#45;&gt;media -->
<g id="edge14" class="edge">
<title>rest-&gt;media</title>
<path fill="none" stroke="black" d="M164.64,-559.94C174.85,-521.83 196.38,-441.49 208.41,-396.57"/>
<polygon fill="black" stroke="black" points="211.73,-397.72 210.94,-387.15 204.97,-395.91 211.73,-397.72"/>
</g>
<!-- socketio&#45;&gt;social -->
<g id="edge16" class="edge">
<title>socketio-&gt;social</title>
<path fill="none" stroke="black" d="M821.26,-227.07C857.68,-290.16 965.29,-476.55 1007.95,-550.43"/>
<polygon fill="black" stroke="black" points="1004.73,-551.87 1012.77,-558.78 1010.8,-548.37 1004.73,-551.87"/>
</g>
<!-- socketio&#45;&gt;notification -->
<g id="edge15" class="edge">
<title>socketio-&gt;notification</title>
<path fill="none" stroke="black" d="M808.99,-227.07C808.99,-332.23 808.99,-796.87 808.99,-924.09"/>
<polygon fill="black" stroke="black" points="805.49,-923.81 808.99,-933.81 812.49,-923.81 805.49,-923.81"/>
</g>
<!-- mongodb -->
<g id="node12" class="node">
<title>mongodb</title>
<path fill="lightcoral" stroke="black" d="M648.99,-168.56C648.99,-168.56 535.63,-168.56 535.63,-168.56 529.63,-168.56 523.63,-162.56 523.63,-156.56 523.63,-156.56 523.63,-138.96 523.63,-138.96 523.63,-132.96 529.63,-126.96 535.63,-126.96 535.63,-126.96 648.99,-126.96 648.99,-126.96 654.99,-126.96 660.99,-132.96 660.99,-138.96 660.99,-138.96 660.99,-156.56 660.99,-156.56 660.99,-162.56 654.99,-168.56 648.99,-168.56"/>
<text text-anchor="middle" x="592.31" y="-151.96" font-family="Arial" font-size="14.00">MongoDB</text>
<text text-anchor="middle" x="592.31" y="-135.16" font-family="Arial" font-size="14.00">(Primary Database)</text>
</g>
<!-- auth&#45;&gt;mongodb -->
<g id="edge17" class="edge">
<title>auth-&gt;mongodb</title>
<path fill="none" stroke="black" d="M229.3,-776.52C284.42,-681.04 509.28,-291.58 574.5,-178.61"/>
<polygon fill="black" stroke="black" points="577.41,-180.58 579.38,-170.17 571.34,-177.08 577.41,-180.58"/>
</g>
<!-- redis -->
<g id="node13" class="node">
<title>redis</title>
<path fill="lightcoral" stroke="black" d="M1024.88,-818.58C1024.88,-818.58 910.32,-818.58 910.32,-818.58 904.32,-818.58 898.32,-812.58 898.32,-806.58 898.32,-806.58 898.32,-788.98 898.32,-788.98 898.32,-782.98 904.32,-776.98 910.32,-776.98 910.32,-776.98 1024.88,-776.98 1024.88,-776.98 1030.88,-776.98 1036.88,-782.98 1036.88,-788.98 1036.88,-788.98 1036.88,-806.58 1036.88,-806.58 1036.88,-812.58 1030.88,-818.58 1024.88,-818.58"/>
<text text-anchor="middle" x="967.6" y="-801.98" font-family="Arial" font-size="14.00">Redis</text>
<text text-anchor="middle" x="967.6" y="-785.18" font-family="Arial" font-size="14.00">(Cache + Sessions)</text>
</g>
<!-- auth&#45;&gt;redis -->
<g id="edge18" class="edge">
<title>auth-&gt;redis</title>
<path fill="none" stroke="black" d="M276.86,-797.78C410.87,-797.78 735.18,-797.78 886.87,-797.78"/>
<polygon fill="black" stroke="black" points="886.41,-801.28 896.41,-797.78 886.41,-794.28 886.41,-801.28"/>
</g>
<!-- flight&#45;&gt;mongodb -->
<g id="edge19" class="edge">
<title>flight-&gt;mongodb</title>
<path fill="none" stroke="black" d="M438.89,-188.87C461.86,-182.72 488.11,-175.68 512.33,-169.19"/>
<polygon fill="black" stroke="black" points="513.08,-172.62 521.83,-166.65 511.27,-165.85 513.08,-172.62"/>
</g>
<!-- ocr -->
<g id="node15" class="node">
<title>ocr</title>
<path fill="lavender" stroke="black" d="M272.45,-141.42C272.45,-141.42 156.76,-141.42 156.76,-141.42 150.76,-141.42 144.76,-135.42 144.76,-129.42 144.76,-129.42 144.76,-111.82 144.76,-111.82 144.76,-105.82 150.76,-99.82 156.76,-99.82 156.76,-99.82 272.45,-99.82 272.45,-99.82 278.45,-99.82 284.45,-105.82 284.45,-111.82 284.45,-111.82 284.45,-129.42 284.45,-129.42 284.45,-135.42 278.45,-141.42 272.45,-141.42"/>
<text text-anchor="middle" x="214.6" y="-124.82" font-family="Arial" font-size="14.00">OCR Services</text>
<text text-anchor="middle" x="214.6" y="-108.02" font-family="Arial" font-size="14.00">(Tesseract/Mathpix)</text>
</g>
<!-- flight&#45;&gt;ocr -->
<g id="edge25" class="edge">
<title>flight-&gt;ocr</title>
<path fill="none" stroke="black" d="M335.42,-184.54C314.01,-173.21 287.48,-159.18 264.74,-147.15"/>
<polygon fill="black" stroke="black" points="266.4,-144.07 255.93,-142.48 263.13,-150.25 266.4,-144.07"/>
</g>
<!-- flightapi -->
<g id="node18" class="node">
<title>flightapi</title>
<path fill="lavender" stroke="black" d="M439.69,-41.6C439.69,-41.6 341.11,-41.6 341.11,-41.6 335.11,-41.6 329.11,-35.6 329.11,-29.6 329.11,-29.6 329.11,-12 329.11,-12 329.11,-6 335.11,0 341.11,0 341.11,0 439.69,0 439.69,0 445.69,0 451.69,-6 451.69,-12 451.69,-12 451.69,-29.6 451.69,-29.6 451.69,-35.6 445.69,-41.6 439.69,-41.6"/>
<text text-anchor="middle" x="390.4" y="-25" font-family="Arial" font-size="14.00">Flight APIs</text>
<text text-anchor="middle" x="390.4" y="-8.2" font-family="Arial" font-size="14.00">(Status Tracking)</text>
</g>
<!-- flight&#45;&gt;flightapi -->
<g id="edge26" class="edge">
<title>flight-&gt;flightapi</title>
<path fill="none" stroke="black" d="M377.33,-184.6C379.89,-152.48 384.78,-91.27 387.79,-53.45"/>
<polygon fill="black" stroke="black" points="391.28,-53.82 388.58,-43.57 384.3,-53.26 391.28,-53.82"/>
</g>
<!-- social&#45;&gt;mongodb -->
<g id="edge20" class="edge">
<title>social-&gt;mongodb</title>
<path fill="none" stroke="black" d="M1004.46,-559.91C933.33,-488.78 702.99,-258.44 621.34,-176.79"/>
<polygon fill="black" stroke="black" points="624.08,-174.58 614.54,-169.99 619.13,-179.53 624.08,-174.58"/>
</g>
<!-- social&#45;&gt;redis -->
<g id="edge21" class="edge">
<title>social-&gt;redis</title>
<path fill="none" stroke="black" d="M1019.99,-602.28C1009.78,-640.38 988.25,-720.73 976.21,-765.65"/>
<polygon fill="black" stroke="black" points="972.9,-764.5 973.69,-775.06 979.66,-766.31 972.9,-764.5"/>
</g>
<!-- maps -->
<g id="node17" class="node">
<title>maps</title>
<path fill="lavender" stroke="black" d="M1221.49,-601.91C1221.49,-601.91 1109.66,-601.91 1109.66,-601.91 1103.66,-601.91 1097.66,-595.91 1097.66,-589.91 1097.66,-589.91 1097.66,-572.31 1097.66,-572.31 1097.66,-566.31 1103.66,-560.31 1109.66,-560.31 1109.66,-560.31 1221.49,-560.31 1221.49,-560.31 1227.49,-560.31 1233.49,-566.31 1233.49,-572.31 1233.49,-572.31 1233.49,-589.91 1233.49,-589.91 1233.49,-595.91 1227.49,-601.91 1221.49,-601.91"/>
<text text-anchor="middle" x="1165.57" y="-585.31" font-family="Arial" font-size="14.00">Maps API</text>
<text text-anchor="middle" x="1165.57" y="-568.51" font-family="Arial" font-size="14.00">(Location Services)</text>
</g>
<!-- social&#45;&gt;maps -->
<g id="edge28" class="edge">
<title>social-&gt;maps</title>
<path fill="none" stroke="black" d="M1090.7,-581.11C1090.84,-581.11 1090.99,-581.11 1091.13,-581.11"/>
<polygon fill="black" stroke="black" points="1086.05,-584.61 1096.05,-581.11 1086.05,-577.61 1086.05,-584.61"/>
</g>
<!-- notification&#45;&gt;mongodb -->
<g id="edge22" class="edge">
<title>notification-&gt;mongodb</title>
<path fill="none" stroke="black" d="M803.3,-935.18C773.65,-824.52 636.7,-313.42 600.9,-179.8"/>
<polygon fill="black" stroke="black" points="604.3,-178.97 598.33,-170.22 597.54,-180.78 604.3,-178.97"/>
</g>
<!-- email -->
<g id="node16" class="node">
<title>email</title>
<path fill="lavender" stroke="black" d="M920.25,-1089.94C920.25,-1089.94 827.9,-1089.94 827.9,-1089.94 821.9,-1089.94 815.9,-1083.94 815.9,-1077.94 815.9,-1077.94 815.9,-1060.34 815.9,-1060.34 815.9,-1054.34 821.9,-1048.34 827.9,-1048.34 827.9,-1048.34 920.25,-1048.34 920.25,-1048.34 926.25,-1048.34 932.25,-1054.34 932.25,-1060.34 932.25,-1060.34 932.25,-1077.94 932.25,-1077.94 932.25,-1083.94 926.25,-1089.94 920.25,-1089.94"/>
<text text-anchor="middle" x="874.07" y="-1073.34" font-family="Arial" font-size="14.00">Email Service</text>
<text text-anchor="middle" x="874.07" y="-1056.54" font-family="Arial" font-size="14.00">(SMTP/Resend)</text>
</g>
<!-- notification&#45;&gt;email -->
<g id="edge27" class="edge">
<title>notification-&gt;email</title>
<path fill="none" stroke="black" d="M821.23,-977.6C831.09,-994.69 845.1,-1018.95 856.21,-1038.2"/>
<polygon fill="black" stroke="black" points="853.1,-1039.8 861.13,-1046.71 859.16,-1036.3 853.1,-1039.8"/>
</g>
<!-- media&#45;&gt;mongodb -->
<g id="edge24" class="edge">
<title>media-&gt;mongodb</title>
<path fill="none" stroke="black" d="M253.69,-343.27C322.35,-303.62 470.19,-218.27 545.77,-174.63"/>
<polygon fill="black" stroke="black" points="547.27,-177.81 554.18,-169.77 543.77,-171.74 547.27,-177.81"/>
</g>
<!-- s3 -->
<g id="node14" class="node">
<title>s3</title>
<path fill="lightcoral" stroke="black" d="M134.74,-302.3C134.74,-302.3 12,-302.3 12,-302.3 6,-302.3 0,-296.3 0,-290.3 0,-290.3 0,-272.7 0,-272.7 0,-266.7 6,-260.7 12,-260.7 12,-260.7 134.74,-260.7 134.74,-260.7 140.74,-260.7 146.74,-266.7 146.74,-272.7 146.74,-272.7 146.74,-290.3 146.74,-290.3 146.74,-296.3 140.74,-302.3 134.74,-302.3"/>
<text text-anchor="middle" x="73.37" y="-285.7" font-family="Arial" font-size="14.00">DigitalOcean Spaces</text>
<text text-anchor="middle" x="73.37" y="-268.9" font-family="Arial" font-size="14.00">(Object Storage)</text>
</g>
<!-- media&#45;&gt;s3 -->
<g id="edge23" class="edge">
<title>media-&gt;s3</title>
<path fill="none" stroke="black" d="M180.4,-343.29C162,-332.67 139.49,-319.67 119.88,-308.35"/>
<polygon fill="black" stroke="black" points="121.64,-305.33 111.23,-303.36 118.14,-311.39 121.64,-305.33"/>
</g>
<!-- infra -->
<g id="node19" class="node">
<title>infra</title>
<polygon fill="lightyellow" stroke="black" points="1364.56,-200.51 1104.06,-200.51 1104.06,-91.71 1370.56,-91.71 1370.56,-194.51 1364.56,-200.51"/>
<polyline fill="none" stroke="black" points="1364.56,-200.51 1364.56,-194.51"/>
<polyline fill="none" stroke="black" points="1370.56,-194.51 1364.56,-194.51"/>
<text text-anchor="middle" x="1237.31" y="-183.91" font-family="Arial" font-size="14.00">Infrastructure:</text>
<text text-anchor="middle" x="1237.31" y="-167.11" font-family="Arial" font-size="14.00">- Docker Containers</text>
<text text-anchor="middle" x="1237.31" y="-150.31" font-family="Arial" font-size="14.00">- GitHub Actions CI/CD</text>
<text text-anchor="middle" x="1237.31" y="-133.51" font-family="Arial" font-size="14.00">- Environment: Dev/Staging/Prod</text>
<text text-anchor="middle" x="1237.31" y="-116.71" font-family="Arial" font-size="14.00">- Monitoring: Health Checks</text>
<text text-anchor="middle" x="1237.31" y="-99.91" font-family="Arial" font-size="14.00">- Security: HTTPS, CORS, Rate Limiting</text>
</g>
</g>
</svg>